<mxfile host="app.diagrams.net" modified="2023-08-06T15:30:07.003Z" agent="Mozilla/5.0 (Windows NT 10.0; Win64; x64) AppleWebKit/537.36 (KHTML, like Gecko) Chrome/115.0.0.0 Safari/537.36" etag="VAfPUOziwT-_gVVZwwYo" version="21.6.6" type="device">
  <diagram name="Page-1" id="qRpfVopAPdZsKqlo9tMl">
    <mxGraphModel dx="1400" dy="1221" grid="0" gridSize="10" guides="1" tooltips="1" connect="1" arrows="1" fold="1" page="0" pageScale="1" pageWidth="850" pageHeight="1100" math="0" shadow="0">
      <root>
        <mxCell id="0" />
        <mxCell id="1" parent="0" />
        <mxCell id="ZXwp0ZntNAgwdxgvOFU_-1" value="Orders" style="shape=table;startSize=30;container=1;collapsible=1;childLayout=tableLayout;fixedRows=1;rowLines=0;fontStyle=1;align=center;resizeLast=1;html=1;fontSize=19;spacing=3;fillColor=#d5e8d4;strokeColor=#82b366;labelBorderColor=#ed0c0c;" vertex="1" parent="1">
          <mxGeometry x="510" y="192" width="256" height="240" as="geometry" />
        </mxCell>
        <mxCell id="ZXwp0ZntNAgwdxgvOFU_-2" value="" style="shape=tableRow;horizontal=0;startSize=0;swimlaneHead=0;swimlaneBody=0;fillColor=#d5e8d4;collapsible=0;dropTarget=0;points=[[0,0.5],[1,0.5]];portConstraint=eastwest;top=0;left=0;right=0;bottom=1;fontSize=19;spacing=3;strokeColor=#82b366;labelBorderColor=#ed0c0c;html=1;" vertex="1" parent="ZXwp0ZntNAgwdxgvOFU_-1">
          <mxGeometry y="30" width="256" height="30" as="geometry" />
        </mxCell>
        <mxCell id="ZXwp0ZntNAgwdxgvOFU_-3" value="PK" style="shape=partialRectangle;connectable=0;fillColor=#d5e8d4;top=0;left=0;bottom=0;right=0;fontStyle=1;overflow=hidden;html=1;fontSize=19;spacing=3;strokeColor=#82b366;labelBorderColor=#ed0c0c;" vertex="1" parent="ZXwp0ZntNAgwdxgvOFU_-2">
          <mxGeometry width="30" height="30" as="geometry">
            <mxRectangle width="30" height="30" as="alternateBounds" />
          </mxGeometry>
        </mxCell>
        <mxCell id="ZXwp0ZntNAgwdxgvOFU_-4" value="order_id" style="shape=partialRectangle;connectable=0;fillColor=#d5e8d4;top=0;left=0;bottom=0;right=0;align=left;spacingLeft=6;fontStyle=5;overflow=hidden;html=1;fontSize=19;spacing=3;strokeColor=#82b366;labelBorderColor=#ed0c0c;" vertex="1" parent="ZXwp0ZntNAgwdxgvOFU_-2">
          <mxGeometry x="30" width="226" height="30" as="geometry">
            <mxRectangle width="226" height="30" as="alternateBounds" />
          </mxGeometry>
        </mxCell>
        <mxCell id="ZXwp0ZntNAgwdxgvOFU_-5" value="" style="shape=tableRow;horizontal=0;startSize=0;swimlaneHead=0;swimlaneBody=0;fillColor=#d5e8d4;collapsible=0;dropTarget=0;points=[[0,0.5],[1,0.5]];portConstraint=eastwest;top=0;left=0;right=0;bottom=0;fontSize=19;spacing=3;strokeColor=#82b366;labelBorderColor=#ed0c0c;html=1;" vertex="1" parent="ZXwp0ZntNAgwdxgvOFU_-1">
          <mxGeometry y="60" width="256" height="30" as="geometry" />
        </mxCell>
        <mxCell id="ZXwp0ZntNAgwdxgvOFU_-6" value="" style="shape=partialRectangle;connectable=0;fillColor=#d5e8d4;top=0;left=0;bottom=0;right=0;editable=1;overflow=hidden;html=1;fontSize=19;spacing=3;strokeColor=#82b366;labelBorderColor=#ed0c0c;" vertex="1" parent="ZXwp0ZntNAgwdxgvOFU_-5">
          <mxGeometry width="30" height="30" as="geometry">
            <mxRectangle width="30" height="30" as="alternateBounds" />
          </mxGeometry>
        </mxCell>
        <mxCell id="ZXwp0ZntNAgwdxgvOFU_-7" value="user_id" style="shape=partialRectangle;connectable=0;fillColor=#d5e8d4;top=0;left=0;bottom=0;right=0;align=left;spacingLeft=6;overflow=hidden;html=1;fontSize=19;spacing=3;strokeColor=#82b366;labelBorderColor=#ed0c0c;" vertex="1" parent="ZXwp0ZntNAgwdxgvOFU_-5">
          <mxGeometry x="30" width="226" height="30" as="geometry">
            <mxRectangle width="226" height="30" as="alternateBounds" />
          </mxGeometry>
        </mxCell>
        <mxCell id="ZXwp0ZntNAgwdxgvOFU_-8" value="" style="shape=tableRow;horizontal=0;startSize=0;swimlaneHead=0;swimlaneBody=0;fillColor=#d5e8d4;collapsible=0;dropTarget=0;points=[[0,0.5],[1,0.5]];portConstraint=eastwest;top=0;left=0;right=0;bottom=0;fontSize=19;spacing=3;strokeColor=#82b366;labelBorderColor=#ed0c0c;html=1;" vertex="1" parent="ZXwp0ZntNAgwdxgvOFU_-1">
          <mxGeometry y="90" width="256" height="30" as="geometry" />
        </mxCell>
        <mxCell id="ZXwp0ZntNAgwdxgvOFU_-9" value="" style="shape=partialRectangle;connectable=0;fillColor=#d5e8d4;top=0;left=0;bottom=0;right=0;editable=1;overflow=hidden;html=1;fontSize=19;spacing=3;strokeColor=#82b366;labelBorderColor=#ed0c0c;" vertex="1" parent="ZXwp0ZntNAgwdxgvOFU_-8">
          <mxGeometry width="30" height="30" as="geometry">
            <mxRectangle width="30" height="30" as="alternateBounds" />
          </mxGeometry>
        </mxCell>
        <mxCell id="ZXwp0ZntNAgwdxgvOFU_-10" value="order_number" style="shape=partialRectangle;connectable=0;fillColor=#d5e8d4;top=0;left=0;bottom=0;right=0;align=left;spacingLeft=6;overflow=hidden;html=1;fontSize=19;spacing=3;strokeColor=#82b366;labelBorderColor=#ed0c0c;" vertex="1" parent="ZXwp0ZntNAgwdxgvOFU_-8">
          <mxGeometry x="30" width="226" height="30" as="geometry">
            <mxRectangle width="226" height="30" as="alternateBounds" />
          </mxGeometry>
        </mxCell>
        <mxCell id="ZXwp0ZntNAgwdxgvOFU_-11" value="" style="shape=tableRow;horizontal=0;startSize=0;swimlaneHead=0;swimlaneBody=0;fillColor=#d5e8d4;collapsible=0;dropTarget=0;points=[[0,0.5],[1,0.5]];portConstraint=eastwest;top=0;left=0;right=0;bottom=0;fontSize=19;spacing=3;strokeColor=#82b366;labelBorderColor=#ed0c0c;html=1;" vertex="1" parent="ZXwp0ZntNAgwdxgvOFU_-1">
          <mxGeometry y="120" width="256" height="30" as="geometry" />
        </mxCell>
        <mxCell id="ZXwp0ZntNAgwdxgvOFU_-12" value="" style="shape=partialRectangle;connectable=0;fillColor=#d5e8d4;top=0;left=0;bottom=0;right=0;editable=1;overflow=hidden;html=1;fontSize=19;spacing=3;strokeColor=#82b366;labelBorderColor=#ed0c0c;" vertex="1" parent="ZXwp0ZntNAgwdxgvOFU_-11">
          <mxGeometry width="30" height="30" as="geometry">
            <mxRectangle width="30" height="30" as="alternateBounds" />
          </mxGeometry>
        </mxCell>
        <mxCell id="ZXwp0ZntNAgwdxgvOFU_-13" value="order_dow" style="shape=partialRectangle;connectable=0;fillColor=#d5e8d4;top=0;left=0;bottom=0;right=0;align=left;spacingLeft=6;overflow=hidden;html=1;fontSize=19;spacing=3;strokeColor=#82b366;labelBorderColor=#ed0c0c;" vertex="1" parent="ZXwp0ZntNAgwdxgvOFU_-11">
          <mxGeometry x="30" width="226" height="30" as="geometry">
            <mxRectangle width="226" height="30" as="alternateBounds" />
          </mxGeometry>
        </mxCell>
        <mxCell id="ZXwp0ZntNAgwdxgvOFU_-17" value="" style="shape=tableRow;horizontal=0;startSize=0;swimlaneHead=0;swimlaneBody=0;fillColor=#d5e8d4;collapsible=0;dropTarget=0;points=[[0,0.5],[1,0.5]];portConstraint=eastwest;top=0;left=0;right=0;bottom=0;fontSize=19;spacing=3;strokeColor=#82b366;labelBorderColor=#ed0c0c;html=1;" vertex="1" parent="ZXwp0ZntNAgwdxgvOFU_-1">
          <mxGeometry y="150" width="256" height="30" as="geometry" />
        </mxCell>
        <mxCell id="ZXwp0ZntNAgwdxgvOFU_-18" style="shape=partialRectangle;connectable=0;fillColor=#d5e8d4;top=0;left=0;bottom=0;right=0;editable=1;overflow=hidden;html=1;fontSize=19;spacing=3;strokeColor=#82b366;labelBorderColor=#ed0c0c;" vertex="1" parent="ZXwp0ZntNAgwdxgvOFU_-17">
          <mxGeometry width="30" height="30" as="geometry">
            <mxRectangle width="30" height="30" as="alternateBounds" />
          </mxGeometry>
        </mxCell>
        <mxCell id="ZXwp0ZntNAgwdxgvOFU_-19" value="order_hour_of_day" style="shape=partialRectangle;connectable=0;fillColor=#d5e8d4;top=0;left=0;bottom=0;right=0;align=left;spacingLeft=6;overflow=hidden;html=1;fontSize=19;spacing=3;strokeColor=#82b366;labelBorderColor=#ed0c0c;" vertex="1" parent="ZXwp0ZntNAgwdxgvOFU_-17">
          <mxGeometry x="30" width="226" height="30" as="geometry">
            <mxRectangle width="226" height="30" as="alternateBounds" />
          </mxGeometry>
        </mxCell>
        <mxCell id="ZXwp0ZntNAgwdxgvOFU_-14" value="" style="shape=tableRow;horizontal=0;startSize=0;swimlaneHead=0;swimlaneBody=0;fillColor=#d5e8d4;collapsible=0;dropTarget=0;points=[[0,0.5],[1,0.5]];portConstraint=eastwest;top=0;left=0;right=0;bottom=0;fontSize=19;spacing=3;strokeColor=#82b366;labelBorderColor=#ed0c0c;html=1;" vertex="1" parent="ZXwp0ZntNAgwdxgvOFU_-1">
          <mxGeometry y="180" width="256" height="30" as="geometry" />
        </mxCell>
        <mxCell id="ZXwp0ZntNAgwdxgvOFU_-15" style="shape=partialRectangle;connectable=0;fillColor=#d5e8d4;top=0;left=0;bottom=0;right=0;editable=1;overflow=hidden;html=1;fontSize=19;spacing=3;strokeColor=#82b366;labelBorderColor=#ed0c0c;" vertex="1" parent="ZXwp0ZntNAgwdxgvOFU_-14">
          <mxGeometry width="30" height="30" as="geometry">
            <mxRectangle width="30" height="30" as="alternateBounds" />
          </mxGeometry>
        </mxCell>
        <mxCell id="ZXwp0ZntNAgwdxgvOFU_-16" value="days_since_prior_order" style="shape=partialRectangle;connectable=0;fillColor=#d5e8d4;top=0;left=0;bottom=0;right=0;align=left;spacingLeft=6;overflow=hidden;html=1;fontSize=19;spacing=3;strokeColor=#82b366;labelBorderColor=#ed0c0c;" vertex="1" parent="ZXwp0ZntNAgwdxgvOFU_-14">
          <mxGeometry x="30" width="226" height="30" as="geometry">
            <mxRectangle width="226" height="30" as="alternateBounds" />
          </mxGeometry>
        </mxCell>
        <mxCell id="ZXwp0ZntNAgwdxgvOFU_-20" value="" style="shape=tableRow;horizontal=0;startSize=0;swimlaneHead=0;swimlaneBody=0;fillColor=#d5e8d4;collapsible=0;dropTarget=0;points=[[0,0.5],[1,0.5]];portConstraint=eastwest;top=0;left=0;right=0;bottom=0;fontSize=19;spacing=3;strokeColor=#82b366;labelBorderColor=#ed0c0c;html=1;" vertex="1" parent="ZXwp0ZntNAgwdxgvOFU_-1">
          <mxGeometry y="210" width="256" height="30" as="geometry" />
        </mxCell>
        <mxCell id="ZXwp0ZntNAgwdxgvOFU_-21" style="shape=partialRectangle;connectable=0;fillColor=#d5e8d4;top=0;left=0;bottom=0;right=0;editable=1;overflow=hidden;html=1;fontSize=19;spacing=3;strokeColor=#82b366;labelBorderColor=#ed0c0c;" vertex="1" parent="ZXwp0ZntNAgwdxgvOFU_-20">
          <mxGeometry width="30" height="30" as="geometry">
            <mxRectangle width="30" height="30" as="alternateBounds" />
          </mxGeometry>
        </mxCell>
        <mxCell id="ZXwp0ZntNAgwdxgvOFU_-22" style="shape=partialRectangle;connectable=0;fillColor=#d5e8d4;top=0;left=0;bottom=0;right=0;align=left;spacingLeft=6;overflow=hidden;html=1;fontSize=19;spacing=3;strokeColor=#82b366;labelBorderColor=#ed0c0c;" vertex="1" parent="ZXwp0ZntNAgwdxgvOFU_-20">
          <mxGeometry x="30" width="226" height="30" as="geometry">
            <mxRectangle width="226" height="30" as="alternateBounds" />
          </mxGeometry>
        </mxCell>
        <mxCell id="ZXwp0ZntNAgwdxgvOFU_-45" value="aisles" style="shape=table;startSize=30;container=1;collapsible=1;childLayout=tableLayout;fixedRows=1;rowLines=0;fontStyle=1;align=center;resizeLast=1;html=1;fontSize=19;spacing=3;fillColor=#d5e8d4;strokeColor=#82b366;labelBorderColor=#ed0c0c;" vertex="1" parent="1">
          <mxGeometry x="991" y="-56" width="180" height="90" as="geometry" />
        </mxCell>
        <mxCell id="ZXwp0ZntNAgwdxgvOFU_-46" value="" style="shape=tableRow;horizontal=0;startSize=0;swimlaneHead=0;swimlaneBody=0;fillColor=#d5e8d4;collapsible=0;dropTarget=0;points=[[0,0.5],[1,0.5]];portConstraint=eastwest;top=0;left=0;right=0;bottom=1;fontSize=19;spacing=3;strokeColor=#82b366;labelBorderColor=#ed0c0c;html=1;" vertex="1" parent="ZXwp0ZntNAgwdxgvOFU_-45">
          <mxGeometry y="30" width="180" height="30" as="geometry" />
        </mxCell>
        <mxCell id="ZXwp0ZntNAgwdxgvOFU_-47" value="PK" style="shape=partialRectangle;connectable=0;fillColor=#d5e8d4;top=0;left=0;bottom=0;right=0;fontStyle=1;overflow=hidden;html=1;fontSize=19;spacing=3;strokeColor=#82b366;labelBorderColor=#ed0c0c;" vertex="1" parent="ZXwp0ZntNAgwdxgvOFU_-46">
          <mxGeometry width="30" height="30" as="geometry">
            <mxRectangle width="30" height="30" as="alternateBounds" />
          </mxGeometry>
        </mxCell>
        <mxCell id="ZXwp0ZntNAgwdxgvOFU_-48" value="aisle_id&lt;span style=&quot;white-space: pre; font-size: 19px;&quot;&gt;&#x9;&lt;/span&gt;&lt;span style=&quot;white-space: pre; font-size: 19px;&quot;&gt;&#x9;&lt;/span&gt;" style="shape=partialRectangle;connectable=0;fillColor=#d5e8d4;top=0;left=0;bottom=0;right=0;align=left;spacingLeft=6;fontStyle=5;overflow=hidden;html=1;fontSize=19;spacing=3;strokeColor=#82b366;labelBorderColor=#ed0c0c;" vertex="1" parent="ZXwp0ZntNAgwdxgvOFU_-46">
          <mxGeometry x="30" width="150" height="30" as="geometry">
            <mxRectangle width="150" height="30" as="alternateBounds" />
          </mxGeometry>
        </mxCell>
        <mxCell id="ZXwp0ZntNAgwdxgvOFU_-49" value="" style="shape=tableRow;horizontal=0;startSize=0;swimlaneHead=0;swimlaneBody=0;fillColor=#d5e8d4;collapsible=0;dropTarget=0;points=[[0,0.5],[1,0.5]];portConstraint=eastwest;top=0;left=0;right=0;bottom=0;fontSize=19;spacing=3;strokeColor=#82b366;labelBorderColor=#ed0c0c;html=1;" vertex="1" parent="ZXwp0ZntNAgwdxgvOFU_-45">
          <mxGeometry y="60" width="180" height="30" as="geometry" />
        </mxCell>
        <mxCell id="ZXwp0ZntNAgwdxgvOFU_-50" value="" style="shape=partialRectangle;connectable=0;fillColor=#d5e8d4;top=0;left=0;bottom=0;right=0;editable=1;overflow=hidden;html=1;fontSize=19;spacing=3;strokeColor=#82b366;labelBorderColor=#ed0c0c;" vertex="1" parent="ZXwp0ZntNAgwdxgvOFU_-49">
          <mxGeometry width="30" height="30" as="geometry">
            <mxRectangle width="30" height="30" as="alternateBounds" />
          </mxGeometry>
        </mxCell>
        <mxCell id="ZXwp0ZntNAgwdxgvOFU_-51" value="aisle" style="shape=partialRectangle;connectable=0;fillColor=#d5e8d4;top=0;left=0;bottom=0;right=0;align=left;spacingLeft=6;overflow=hidden;html=1;fontSize=19;spacing=3;strokeColor=#82b366;labelBorderColor=#ed0c0c;" vertex="1" parent="ZXwp0ZntNAgwdxgvOFU_-49">
          <mxGeometry x="30" width="150" height="30" as="geometry">
            <mxRectangle width="150" height="30" as="alternateBounds" />
          </mxGeometry>
        </mxCell>
        <mxCell id="ZXwp0ZntNAgwdxgvOFU_-80" value="departments" style="shape=table;startSize=30;container=1;collapsible=1;childLayout=tableLayout;fixedRows=1;rowLines=0;fontStyle=1;align=center;resizeLast=1;html=1;fontSize=19;spacing=3;fillColor=#d5e8d4;strokeColor=#82b366;labelBorderColor=#ed0c0c;" vertex="1" parent="1">
          <mxGeometry x="991" y="606" width="208" height="90" as="geometry" />
        </mxCell>
        <mxCell id="ZXwp0ZntNAgwdxgvOFU_-81" value="" style="shape=tableRow;horizontal=0;startSize=0;swimlaneHead=0;swimlaneBody=0;fillColor=#d5e8d4;collapsible=0;dropTarget=0;points=[[0,0.5],[1,0.5]];portConstraint=eastwest;top=0;left=0;right=0;bottom=1;fontSize=19;spacing=3;strokeColor=#82b366;labelBorderColor=#ed0c0c;html=1;" vertex="1" parent="ZXwp0ZntNAgwdxgvOFU_-80">
          <mxGeometry y="30" width="208" height="30" as="geometry" />
        </mxCell>
        <mxCell id="ZXwp0ZntNAgwdxgvOFU_-82" value="PK" style="shape=partialRectangle;connectable=0;fillColor=#d5e8d4;top=0;left=0;bottom=0;right=0;fontStyle=1;overflow=hidden;html=1;fontSize=19;spacing=3;strokeColor=#82b366;labelBorderColor=#ed0c0c;" vertex="1" parent="ZXwp0ZntNAgwdxgvOFU_-81">
          <mxGeometry width="30" height="30" as="geometry">
            <mxRectangle width="30" height="30" as="alternateBounds" />
          </mxGeometry>
        </mxCell>
        <mxCell id="ZXwp0ZntNAgwdxgvOFU_-83" value="department_id" style="shape=partialRectangle;connectable=0;fillColor=#d5e8d4;top=0;left=0;bottom=0;right=0;align=left;spacingLeft=6;fontStyle=5;overflow=hidden;html=1;fontSize=19;spacing=3;strokeColor=#82b366;labelBorderColor=#ed0c0c;" vertex="1" parent="ZXwp0ZntNAgwdxgvOFU_-81">
          <mxGeometry x="30" width="178" height="30" as="geometry">
            <mxRectangle width="178" height="30" as="alternateBounds" />
          </mxGeometry>
        </mxCell>
        <mxCell id="ZXwp0ZntNAgwdxgvOFU_-84" value="" style="shape=tableRow;horizontal=0;startSize=0;swimlaneHead=0;swimlaneBody=0;fillColor=#d5e8d4;collapsible=0;dropTarget=0;points=[[0,0.5],[1,0.5]];portConstraint=eastwest;top=0;left=0;right=0;bottom=0;fontSize=19;spacing=3;strokeColor=#82b366;labelBorderColor=#ed0c0c;html=1;" vertex="1" parent="ZXwp0ZntNAgwdxgvOFU_-80">
          <mxGeometry y="60" width="208" height="30" as="geometry" />
        </mxCell>
        <mxCell id="ZXwp0ZntNAgwdxgvOFU_-85" value="" style="shape=partialRectangle;connectable=0;fillColor=#d5e8d4;top=0;left=0;bottom=0;right=0;editable=1;overflow=hidden;html=1;fontSize=19;spacing=3;strokeColor=#82b366;labelBorderColor=#ed0c0c;" vertex="1" parent="ZXwp0ZntNAgwdxgvOFU_-84">
          <mxGeometry width="30" height="30" as="geometry">
            <mxRectangle width="30" height="30" as="alternateBounds" />
          </mxGeometry>
        </mxCell>
        <mxCell id="ZXwp0ZntNAgwdxgvOFU_-86" value="department" style="shape=partialRectangle;connectable=0;fillColor=#d5e8d4;top=0;left=0;bottom=0;right=0;align=left;spacingLeft=6;overflow=hidden;html=1;fontSize=19;spacing=3;strokeColor=#82b366;labelBorderColor=#ed0c0c;" vertex="1" parent="ZXwp0ZntNAgwdxgvOFU_-84">
          <mxGeometry x="30" width="178" height="30" as="geometry">
            <mxRectangle width="178" height="30" as="alternateBounds" />
          </mxGeometry>
        </mxCell>
        <mxCell id="ZXwp0ZntNAgwdxgvOFU_-91" value="products" style="shape=table;startSize=30;container=1;collapsible=1;childLayout=tableLayout;fixedRows=1;rowLines=0;fontStyle=1;align=center;resizeLast=1;html=1;fontSize=19;spacing=3;fillColor=#d5e8d4;strokeColor=#82b366;labelBorderColor=#ed0c0c;" vertex="1" parent="1">
          <mxGeometry x="150" y="576" width="180" height="150" as="geometry" />
        </mxCell>
        <mxCell id="ZXwp0ZntNAgwdxgvOFU_-92" value="" style="shape=tableRow;horizontal=0;startSize=0;swimlaneHead=0;swimlaneBody=0;fillColor=#d5e8d4;collapsible=0;dropTarget=0;points=[[0,0.5],[1,0.5]];portConstraint=eastwest;top=0;left=0;right=0;bottom=1;fontSize=19;spacing=3;strokeColor=#82b366;labelBorderColor=#ed0c0c;html=1;" vertex="1" parent="ZXwp0ZntNAgwdxgvOFU_-91">
          <mxGeometry y="30" width="180" height="30" as="geometry" />
        </mxCell>
        <mxCell id="ZXwp0ZntNAgwdxgvOFU_-93" value="PK" style="shape=partialRectangle;connectable=0;fillColor=#d5e8d4;top=0;left=0;bottom=0;right=0;fontStyle=1;overflow=hidden;html=1;fontSize=19;spacing=3;strokeColor=#82b366;labelBorderColor=#ed0c0c;" vertex="1" parent="ZXwp0ZntNAgwdxgvOFU_-92">
          <mxGeometry width="30" height="30" as="geometry">
            <mxRectangle width="30" height="30" as="alternateBounds" />
          </mxGeometry>
        </mxCell>
        <mxCell id="ZXwp0ZntNAgwdxgvOFU_-94" value="product_id" style="shape=partialRectangle;connectable=0;fillColor=#d5e8d4;top=0;left=0;bottom=0;right=0;align=left;spacingLeft=6;fontStyle=5;overflow=hidden;html=1;fontSize=19;spacing=3;strokeColor=#82b366;labelBorderColor=#ed0c0c;" vertex="1" parent="ZXwp0ZntNAgwdxgvOFU_-92">
          <mxGeometry x="30" width="150" height="30" as="geometry">
            <mxRectangle width="150" height="30" as="alternateBounds" />
          </mxGeometry>
        </mxCell>
        <mxCell id="ZXwp0ZntNAgwdxgvOFU_-95" value="" style="shape=tableRow;horizontal=0;startSize=0;swimlaneHead=0;swimlaneBody=0;fillColor=#d5e8d4;collapsible=0;dropTarget=0;points=[[0,0.5],[1,0.5]];portConstraint=eastwest;top=0;left=0;right=0;bottom=0;fontSize=19;spacing=3;strokeColor=#82b366;labelBorderColor=#ed0c0c;html=1;" vertex="1" parent="ZXwp0ZntNAgwdxgvOFU_-91">
          <mxGeometry y="60" width="180" height="30" as="geometry" />
        </mxCell>
        <mxCell id="ZXwp0ZntNAgwdxgvOFU_-96" value="" style="shape=partialRectangle;connectable=0;fillColor=#d5e8d4;top=0;left=0;bottom=0;right=0;editable=1;overflow=hidden;html=1;fontSize=19;spacing=3;strokeColor=#82b366;labelBorderColor=#ed0c0c;" vertex="1" parent="ZXwp0ZntNAgwdxgvOFU_-95">
          <mxGeometry width="30" height="30" as="geometry">
            <mxRectangle width="30" height="30" as="alternateBounds" />
          </mxGeometry>
        </mxCell>
        <mxCell id="ZXwp0ZntNAgwdxgvOFU_-97" value="product_name" style="shape=partialRectangle;connectable=0;fillColor=#d5e8d4;top=0;left=0;bottom=0;right=0;align=left;spacingLeft=6;overflow=hidden;html=1;fontSize=19;spacing=3;strokeColor=#82b366;labelBorderColor=#ed0c0c;" vertex="1" parent="ZXwp0ZntNAgwdxgvOFU_-95">
          <mxGeometry x="30" width="150" height="30" as="geometry">
            <mxRectangle width="150" height="30" as="alternateBounds" />
          </mxGeometry>
        </mxCell>
        <mxCell id="ZXwp0ZntNAgwdxgvOFU_-98" value="" style="shape=tableRow;horizontal=0;startSize=0;swimlaneHead=0;swimlaneBody=0;fillColor=#d5e8d4;collapsible=0;dropTarget=0;points=[[0,0.5],[1,0.5]];portConstraint=eastwest;top=0;left=0;right=0;bottom=0;fontSize=19;spacing=3;strokeColor=#82b366;labelBorderColor=#ed0c0c;html=1;" vertex="1" parent="ZXwp0ZntNAgwdxgvOFU_-91">
          <mxGeometry y="90" width="180" height="30" as="geometry" />
        </mxCell>
        <mxCell id="ZXwp0ZntNAgwdxgvOFU_-99" value="FK" style="shape=partialRectangle;connectable=0;fillColor=#d5e8d4;top=0;left=0;bottom=0;right=0;editable=1;overflow=hidden;html=1;fontSize=19;spacing=3;strokeColor=#82b366;labelBorderColor=#ed0c0c;" vertex="1" parent="ZXwp0ZntNAgwdxgvOFU_-98">
          <mxGeometry width="30" height="30" as="geometry">
            <mxRectangle width="30" height="30" as="alternateBounds" />
          </mxGeometry>
        </mxCell>
        <mxCell id="ZXwp0ZntNAgwdxgvOFU_-100" value="aisle_id" style="shape=partialRectangle;connectable=0;fillColor=#d5e8d4;top=0;left=0;bottom=0;right=0;align=left;spacingLeft=6;overflow=hidden;html=1;fontSize=19;spacing=3;strokeColor=#82b366;labelBorderColor=#ed0c0c;" vertex="1" parent="ZXwp0ZntNAgwdxgvOFU_-98">
          <mxGeometry x="30" width="150" height="30" as="geometry">
            <mxRectangle width="150" height="30" as="alternateBounds" />
          </mxGeometry>
        </mxCell>
        <mxCell id="ZXwp0ZntNAgwdxgvOFU_-101" value="" style="shape=tableRow;horizontal=0;startSize=0;swimlaneHead=0;swimlaneBody=0;fillColor=#d5e8d4;collapsible=0;dropTarget=0;points=[[0,0.5],[1,0.5]];portConstraint=eastwest;top=0;left=0;right=0;bottom=0;fontSize=19;spacing=3;strokeColor=#82b366;labelBorderColor=#ed0c0c;html=1;" vertex="1" parent="ZXwp0ZntNAgwdxgvOFU_-91">
          <mxGeometry y="120" width="180" height="30" as="geometry" />
        </mxCell>
        <mxCell id="ZXwp0ZntNAgwdxgvOFU_-102" value="FK" style="shape=partialRectangle;connectable=0;fillColor=#d5e8d4;top=0;left=0;bottom=0;right=0;editable=1;overflow=hidden;html=1;fontSize=19;spacing=3;strokeColor=#82b366;labelBorderColor=#ed0c0c;" vertex="1" parent="ZXwp0ZntNAgwdxgvOFU_-101">
          <mxGeometry width="30" height="30" as="geometry">
            <mxRectangle width="30" height="30" as="alternateBounds" />
          </mxGeometry>
        </mxCell>
        <mxCell id="ZXwp0ZntNAgwdxgvOFU_-103" value="department_id" style="shape=partialRectangle;connectable=0;fillColor=#d5e8d4;top=0;left=0;bottom=0;right=0;align=left;spacingLeft=6;overflow=hidden;html=1;fontSize=19;spacing=3;strokeColor=#82b366;labelBorderColor=#ed0c0c;" vertex="1" parent="ZXwp0ZntNAgwdxgvOFU_-101">
          <mxGeometry x="30" width="150" height="30" as="geometry">
            <mxRectangle width="150" height="30" as="alternateBounds" />
          </mxGeometry>
        </mxCell>
        <mxCell id="ZXwp0ZntNAgwdxgvOFU_-104" value="order_products" style="shape=table;startSize=30;container=1;collapsible=1;childLayout=tableLayout;fixedRows=1;rowLines=0;fontStyle=1;align=center;resizeLast=1;html=1;fontSize=19;spacing=3;fillColor=#d5e8d4;strokeColor=#82b366;labelBorderColor=#ed0c0c;" vertex="1" parent="1">
          <mxGeometry x="152" y="-56" width="243" height="150" as="geometry" />
        </mxCell>
        <mxCell id="ZXwp0ZntNAgwdxgvOFU_-105" value="" style="shape=tableRow;horizontal=0;startSize=0;swimlaneHead=0;swimlaneBody=0;fillColor=#d5e8d4;collapsible=0;dropTarget=0;points=[[0,0.5],[1,0.5]];portConstraint=eastwest;top=0;left=0;right=0;bottom=1;fontSize=19;spacing=3;strokeColor=#82b366;labelBorderColor=#ed0c0c;html=1;" vertex="1" parent="ZXwp0ZntNAgwdxgvOFU_-104">
          <mxGeometry y="30" width="243" height="30" as="geometry" />
        </mxCell>
        <mxCell id="ZXwp0ZntNAgwdxgvOFU_-106" value="PK , &lt;span style=&quot;font-weight: normal; font-size: 19px;&quot;&gt;FK&lt;/span&gt;" style="shape=partialRectangle;connectable=0;fillColor=#d5e8d4;top=0;left=0;bottom=0;right=0;fontStyle=1;overflow=hidden;html=1;fontSize=19;spacing=3;strokeColor=#82b366;labelBorderColor=#ed0c0c;" vertex="1" parent="ZXwp0ZntNAgwdxgvOFU_-105">
          <mxGeometry width="69.75006103515625" height="30" as="geometry">
            <mxRectangle width="69.75006103515625" height="30" as="alternateBounds" />
          </mxGeometry>
        </mxCell>
        <mxCell id="ZXwp0ZntNAgwdxgvOFU_-107" value="order_id" style="shape=partialRectangle;connectable=0;fillColor=#d5e8d4;top=0;left=0;bottom=0;right=0;align=left;spacingLeft=6;fontStyle=5;overflow=hidden;html=1;fontSize=19;spacing=3;strokeColor=#82b366;labelBorderColor=#ed0c0c;" vertex="1" parent="ZXwp0ZntNAgwdxgvOFU_-105">
          <mxGeometry x="69.75006103515625" width="173.24993896484375" height="30" as="geometry">
            <mxRectangle width="173.24993896484375" height="30" as="alternateBounds" />
          </mxGeometry>
        </mxCell>
        <mxCell id="ZXwp0ZntNAgwdxgvOFU_-120" value="" style="shape=tableRow;horizontal=0;startSize=0;swimlaneHead=0;swimlaneBody=0;fillColor=#d5e8d4;collapsible=0;dropTarget=0;points=[[0,0.5],[1,0.5]];portConstraint=eastwest;top=0;left=0;right=0;bottom=1;fontSize=19;spacing=3;strokeColor=#82b366;labelBorderColor=#ed0c0c;html=1;" vertex="1" parent="ZXwp0ZntNAgwdxgvOFU_-104">
          <mxGeometry y="60" width="243" height="30" as="geometry" />
        </mxCell>
        <mxCell id="ZXwp0ZntNAgwdxgvOFU_-121" value="PK , &lt;span style=&quot;font-weight: normal; font-size: 19px;&quot;&gt;FK&lt;/span&gt;" style="shape=partialRectangle;connectable=0;fillColor=#d5e8d4;top=0;left=0;bottom=0;right=0;fontStyle=1;overflow=hidden;html=1;fontSize=19;spacing=3;strokeColor=#82b366;labelBorderColor=#ed0c0c;" vertex="1" parent="ZXwp0ZntNAgwdxgvOFU_-120">
          <mxGeometry width="69.75006103515625" height="30" as="geometry">
            <mxRectangle width="69.75006103515625" height="30" as="alternateBounds" />
          </mxGeometry>
        </mxCell>
        <mxCell id="ZXwp0ZntNAgwdxgvOFU_-122" value="product_id" style="shape=partialRectangle;connectable=0;fillColor=#d5e8d4;top=0;left=0;bottom=0;right=0;align=left;spacingLeft=6;fontStyle=5;overflow=hidden;html=1;fontSize=19;spacing=3;strokeColor=#82b366;labelBorderColor=#ed0c0c;" vertex="1" parent="ZXwp0ZntNAgwdxgvOFU_-120">
          <mxGeometry x="69.75006103515625" width="173.24993896484375" height="30" as="geometry">
            <mxRectangle width="173.24993896484375" height="30" as="alternateBounds" />
          </mxGeometry>
        </mxCell>
        <mxCell id="ZXwp0ZntNAgwdxgvOFU_-111" value="" style="shape=tableRow;horizontal=0;startSize=0;swimlaneHead=0;swimlaneBody=0;fillColor=#d5e8d4;collapsible=0;dropTarget=0;points=[[0,0.5],[1,0.5]];portConstraint=eastwest;top=0;left=0;right=0;bottom=0;fontSize=19;spacing=3;strokeColor=#82b366;labelBorderColor=#ed0c0c;html=1;" vertex="1" parent="ZXwp0ZntNAgwdxgvOFU_-104">
          <mxGeometry y="90" width="243" height="30" as="geometry" />
        </mxCell>
        <mxCell id="ZXwp0ZntNAgwdxgvOFU_-112" value="" style="shape=partialRectangle;connectable=0;fillColor=#d5e8d4;top=0;left=0;bottom=0;right=0;editable=1;overflow=hidden;html=1;fontSize=19;spacing=3;strokeColor=#82b366;labelBorderColor=#ed0c0c;" vertex="1" parent="ZXwp0ZntNAgwdxgvOFU_-111">
          <mxGeometry width="69.75006103515625" height="30" as="geometry">
            <mxRectangle width="69.75006103515625" height="30" as="alternateBounds" />
          </mxGeometry>
        </mxCell>
        <mxCell id="ZXwp0ZntNAgwdxgvOFU_-113" value="add_to_cart_order" style="shape=partialRectangle;connectable=0;fillColor=#d5e8d4;top=0;left=0;bottom=0;right=0;align=left;spacingLeft=6;overflow=hidden;html=1;fontSize=19;spacing=3;strokeColor=#82b366;labelBorderColor=#ed0c0c;" vertex="1" parent="ZXwp0ZntNAgwdxgvOFU_-111">
          <mxGeometry x="69.75006103515625" width="173.24993896484375" height="30" as="geometry">
            <mxRectangle width="173.24993896484375" height="30" as="alternateBounds" />
          </mxGeometry>
        </mxCell>
        <mxCell id="ZXwp0ZntNAgwdxgvOFU_-114" value="" style="shape=tableRow;horizontal=0;startSize=0;swimlaneHead=0;swimlaneBody=0;fillColor=#d5e8d4;collapsible=0;dropTarget=0;points=[[0,0.5],[1,0.5]];portConstraint=eastwest;top=0;left=0;right=0;bottom=0;fontSize=19;spacing=3;strokeColor=#82b366;labelBorderColor=#ed0c0c;html=1;" vertex="1" parent="ZXwp0ZntNAgwdxgvOFU_-104">
          <mxGeometry y="120" width="243" height="30" as="geometry" />
        </mxCell>
        <mxCell id="ZXwp0ZntNAgwdxgvOFU_-115" value="" style="shape=partialRectangle;connectable=0;fillColor=#d5e8d4;top=0;left=0;bottom=0;right=0;editable=1;overflow=hidden;html=1;fontSize=19;spacing=3;strokeColor=#82b366;labelBorderColor=#ed0c0c;" vertex="1" parent="ZXwp0ZntNAgwdxgvOFU_-114">
          <mxGeometry width="69.75006103515625" height="30" as="geometry">
            <mxRectangle width="69.75006103515625" height="30" as="alternateBounds" />
          </mxGeometry>
        </mxCell>
        <mxCell id="ZXwp0ZntNAgwdxgvOFU_-116" value="reordered" style="shape=partialRectangle;connectable=0;fillColor=#d5e8d4;top=0;left=0;bottom=0;right=0;align=left;spacingLeft=6;overflow=hidden;html=1;fontSize=19;spacing=3;strokeColor=#82b366;labelBorderColor=#ed0c0c;" vertex="1" parent="ZXwp0ZntNAgwdxgvOFU_-114">
          <mxGeometry x="69.75006103515625" width="173.24993896484375" height="30" as="geometry">
            <mxRectangle width="173.24993896484375" height="30" as="alternateBounds" />
          </mxGeometry>
        </mxCell>
        <mxCell id="ZXwp0ZntNAgwdxgvOFU_-134" style="edgeStyle=none;curved=1;rounded=0;orthogonalLoop=1;jettySize=auto;html=1;entryX=1;entryY=0.5;entryDx=0;entryDy=0;fontSize=19;startSize=8;endSize=8;exitX=0;exitY=0.5;exitDx=0;exitDy=0;spacing=3;fillColor=#d5e8d4;strokeColor=#82b366;labelBorderColor=#ed0c0c;" edge="1" parent="1" source="ZXwp0ZntNAgwdxgvOFU_-2" target="ZXwp0ZntNAgwdxgvOFU_-105">
          <mxGeometry relative="1" as="geometry">
            <Array as="points">
              <mxPoint x="430" y="253" />
              <mxPoint x="426" y="108" />
              <mxPoint x="430" y="-14" />
            </Array>
          </mxGeometry>
        </mxCell>
        <mxCell id="ZXwp0ZntNAgwdxgvOFU_-135" style="edgeStyle=none;curved=1;rounded=0;orthogonalLoop=1;jettySize=auto;html=1;fontSize=19;startSize=8;endSize=8;entryX=0;entryY=0.5;entryDx=0;entryDy=0;exitX=0;exitY=0.5;exitDx=0;exitDy=0;spacing=3;fillColor=#d5e8d4;strokeColor=#82b366;labelBorderColor=#ed0c0c;" edge="1" parent="1" source="ZXwp0ZntNAgwdxgvOFU_-120" target="ZXwp0ZntNAgwdxgvOFU_-92">
          <mxGeometry relative="1" as="geometry">
            <mxPoint x="57" y="569" as="targetPoint" />
            <Array as="points">
              <mxPoint x="34" y="37" />
              <mxPoint x="48" y="312" />
              <mxPoint x="39" y="663" />
            </Array>
          </mxGeometry>
        </mxCell>
        <mxCell id="ZXwp0ZntNAgwdxgvOFU_-136" style="edgeStyle=none;curved=1;rounded=0;orthogonalLoop=1;jettySize=auto;html=1;exitX=1;exitY=0.5;exitDx=0;exitDy=0;entryX=0;entryY=0.5;entryDx=0;entryDy=0;fontSize=19;startSize=8;endSize=8;spacing=3;fillColor=#d5e8d4;strokeColor=#82b366;labelBorderColor=#ed0c0c;" edge="1" parent="1" source="ZXwp0ZntNAgwdxgvOFU_-101" target="ZXwp0ZntNAgwdxgvOFU_-81">
          <mxGeometry relative="1" as="geometry">
            <Array as="points">
              <mxPoint x="612" y="721" />
              <mxPoint x="822" y="693" />
            </Array>
          </mxGeometry>
        </mxCell>
        <mxCell id="ZXwp0ZntNAgwdxgvOFU_-137" style="edgeStyle=none;curved=1;rounded=0;orthogonalLoop=1;jettySize=auto;html=1;fontSize=19;startSize=8;endSize=8;entryX=0;entryY=0.5;entryDx=0;entryDy=0;exitX=1;exitY=0.5;exitDx=0;exitDy=0;spacing=3;fillColor=#d5e8d4;strokeColor=#82b366;labelBorderColor=#ed0c0c;" edge="1" parent="1" source="ZXwp0ZntNAgwdxgvOFU_-98" target="ZXwp0ZntNAgwdxgvOFU_-46">
          <mxGeometry relative="1" as="geometry">
            <mxPoint x="682.13330078125" y="626.2000325520833" as="targetPoint" />
            <Array as="points">
              <mxPoint x="627" y="543" />
              <mxPoint x="952" y="572" />
              <mxPoint x="785" y="272" />
              <mxPoint x="749" y="17" />
            </Array>
          </mxGeometry>
        </mxCell>
      </root>
    </mxGraphModel>
  </diagram>
</mxfile>
